<svg width="720" height="148" viewBox="0 0 720 148" fill="none" xmlns="http://www.w3.org/2000/svg">
<path d="M383.23 145.08V1.98H409.83V145.08H383.23ZM407.41 104.08V79.59H427.06C435.853 79.59 442.653 77.1733 447.46 72.34C452.267 67.5067 454.667 60.7567 454.66 52.09C454.66 43.9033 452.26 37.59 447.46 33.15C442.66 28.71 435.86 26.4933 427.06 26.5H407.81V1.98H427.06C444.993 1.98 458.863 6.19335 468.67 14.62C478.477 23.0467 483.38 34.9533 483.38 50.34C483.38 67.4 478.477 80.6133 468.67 89.98C458.863 99.3467 444.993 104.047 427.06 104.08H407.41Z" fill="#B22020"/>
<path d="M550.18 147.1C513.84 147.1 495.67 122.92 495.67 74.56C495.67 24.8533 513.84 -7.62939e-06 550.18 -7.62939e-06C586.52 -7.62939e-06 604.687 24.8533 604.68 74.56C604.68 122.92 586.513 147.1 550.18 147.1ZM550.18 121.71C567.913 121.71 576.777 105.993 576.77 74.56C576.77 41.7133 567.907 25.29 550.18 25.29C532.453 25.29 523.587 41.7133 523.58 74.56C523.58 105.993 532.447 121.71 550.18 121.71Z" fill="#B22020"/>
<path d="M666.14 147.1C658.201 147.117 650.276 146.424 642.46 145.03C635.424 143.834 628.535 141.894 621.91 139.24L625.54 112.04C632.658 115.042 640.018 117.434 647.54 119.19C654.157 120.788 660.933 121.633 667.74 121.71C674.927 121.71 680.437 120.433 684.27 117.88C686.109 116.712 687.607 115.081 688.615 113.15C689.622 111.219 690.104 109.056 690.01 106.88C690.01 100.633 686.08 95.6633 678.22 91.97L657.67 81.97C647.517 77.0033 639.657 70.86 634.09 63.54C628.655 56.6118 625.71 48.0557 625.73 39.25C625.73 26.7567 629.86 17.09 638.12 10.25C646.38 3.41001 658.07 -0.013315 673.19 -0.0199817C681.741 -0.0575194 690.222 1.51663 698.19 4.62003C706.003 7.66227 713.139 12.2158 719.19 18.02L700.85 39.07C696.71 34.9948 691.993 31.5512 686.85 28.85C682.661 26.5944 677.996 25.3674 673.24 25.27C667.327 25.27 662.727 26.53 659.44 29.05C656.153 31.57 654.517 35.2134 654.53 39.98C654.579 43.2992 655.813 46.4914 658.01 48.98C660.784 52.1547 664.155 54.7538 667.93 56.63L687.28 66.63C697.353 71.87 705.127 77.98 710.6 84.96C716.073 91.94 718.81 99.43 718.81 107.43C718.81 120.13 714.243 129.92 705.11 136.8C695.977 143.68 682.987 147.113 666.14 147.1Z" fill="#B22020"/>
<path d="M48.6 28.76H0V16.4H111.36V28.76H62.79V141.16H48.6V28.76Z" fill="#B22020"/>
<path d="M112.82 100.09C113.82 118.84 126.29 132.43 145.52 132.43C160.24 132.43 168.62 126.1 173.8 116.63H187.04C182.47 129.01 170.24 143.63 144.47 143.63C114.22 143.63 99.47 120.82 99.47 97.43C99.47 70.29 117.47 50.61 144.01 50.61C177.21 50.61 188.4 75.37 188.4 96.43C188.4 97.7 188.4 98.72 188.4 100.11L112.82 100.09ZM174.36 89.88C173.54 78.3 167.42 61.54 143.85 61.54C124.78 61.54 114.9 73.78 113.17 89.88H174.36Z" fill="#B22020"/>
<path d="M217 114.6C220.42 126.24 230.27 132.89 247.39 132.89C265.81 132.89 272.58 126.32 272.58 117.38C272.58 109.29 267.99 103.54 244.21 100.8C214 97.19 207.83 86.8 207.83 75.8C207.83 64.99 216.6 50.58 244.1 50.58C274.41 50.58 282.33 66.64 283.1 76.58H269.69C268.32 70.94 264.58 61.17 243.19 61.17C225.19 61.17 221.19 69.09 221.19 74.68C221.19 82.1 225.73 86.53 247 89.28C279.34 93.44 286 103.14 286 116.46C286 132.22 274 143.58 246.61 143.58C220.47 143.58 206.61 132.51 203.52 114.58L217 114.6Z" fill="#B22020"/>
<path d="M295.53 53.04H313.53V23.98H326.79V53.05H350.52V63.98H326.74V115.48C326.74 126.34 329.61 131.14 339.52 131.14C342.541 131.2 345.559 130.925 348.52 130.32V140.48C344.77 141.89 340.7 142 336.05 142C318.81 142 313.48 134.22 313.48 116.82V63.98H295.53V53.04Z" fill="#B22020"/>
</svg>
