<svg width="335.96" height="147.121" fill="none" xmlns="http://www.w3.org/2000/svg">
    <path d="M0 145.1V2h26.6v143.1Zm24.18-41V79.61h19.65c8.793 0 15.593-2.416 20.4-7.25 4.807-4.833 7.207-11.583 7.2-20.25 0-8.186-2.4-14.5-7.2-18.94-4.8-4.44-11.6-6.656-20.4-6.65H24.58V2h19.25c17.933 0 31.803 4.214 41.61 12.64 9.807 8.427 14.71 20.334 14.71 35.72 0 17.06-4.903 30.274-14.71 39.64-9.807 9.367-23.677 14.068-41.61 14.1zM166.95 147.12c-36.34 0-54.51-24.18-54.51-72.54 0-49.706 18.17-74.56 54.51-74.56 36.34 0 54.507 24.854 54.5 74.56 0 48.36-18.167 72.54-54.5 72.54zm0-25.39c17.733 0 26.597-15.716 26.59-47.15 0-32.846-8.863-49.27-26.59-49.27s-26.593 16.424-26.6 49.27c0 31.434 8.867 47.15 26.6 47.15zM282.91 147.12a133.243 133.243 0 0 1-23.68-2.07 100.588 100.588 0 0 1-20.55-5.79l3.63-27.2a136.424 136.424 0 0 0 22 7.15 90.402 90.402 0 0 0 20.2 2.52c7.187 0 12.697-1.276 16.53-3.83a12.4 12.4 0 0 0 5.74-11c0-6.246-3.93-11.216-11.79-14.91l-20.55-10c-10.153-4.966-18.013-11.11-23.58-18.43a39.21 39.21 0 0 1-8.36-24.29c0-12.493 4.13-22.16 12.39-29C263.15 3.43 274.84.008 289.96 0a68.06 68.06 0 0 1 25 4.64 63.754 63.754 0 0 1 21 13.4l-18.34 21.05a59.19 59.19 0 0 0-14-10.22 30.003 30.003 0 0 0-13.61-3.58c-5.913 0-10.513 1.26-13.8 3.78-3.287 2.52-4.923 6.164-4.91 10.93a13.909 13.909 0 0 0 3.48 9 32.212 32.212 0 0 0 9.92 7.65l19.35 10c10.073 5.24 17.847 11.35 23.32 18.33 5.473 6.98 8.21 14.47 8.21 22.47 0 12.7-4.567 22.49-13.7 29.37-9.133 6.88-22.123 10.314-38.97 10.3z" fill="#B22020" style="fill:#fff"/>
</svg>
